<svg width="48" height="48" viewBox="0 0 48 48" fill="none" xmlns="http://www.w3.org/2000/svg">
<path d="M16.4999 8.73593C18.8587 8.73593 21.161 9.46172 23.0936 10.8141C25.0259 12.1663 26.4955 14.0799 27.3036 16.2955C28.1117 18.5115 28.2195 20.9228 27.6112 23.2018C27.0029 25.4806 25.7081 27.5173 23.9032 29.0357L23.2958 29.5475L24.0184 29.8746C26.9917 31.2201 29.5508 33.3372 31.4286 36.0064L31.4354 36.0162L31.4432 36.026C31.589 36.2128 31.6953 36.4277 31.7557 36.6568C31.801 36.8287 31.8205 37.0064 31.8124 37.1832L31.7948 37.36C31.7687 37.5359 31.7158 37.7064 31.6385 37.8658L31.5536 38.0211C31.4292 38.2229 31.265 38.3973 31.0712 38.5338C30.9258 38.6361 30.7662 38.7161 30.5975 38.7701L30.4257 38.815C30.1938 38.864 29.954 38.8662 29.7216 38.8199C29.4892 38.7736 29.2685 38.6796 29.0731 38.5455C28.8778 38.4114 28.7115 38.2389 28.5848 38.0387L28.579 38.0289L28.5721 38.0191L28.3114 37.6598C27.0725 36.0035 25.4989 34.6265 23.6932 33.6178L23.3026 33.4068C21.2014 32.3147 18.8679 31.7447 16.4999 31.7447C14.1319 31.7447 11.7983 32.3147 9.69714 33.4068C7.72737 34.4307 6.01576 35.8851 4.68835 37.6598L4.42859 38.0191L4.42761 38.0201C4.30767 38.1924 4.15743 38.3416 3.98523 38.4596L3.80554 38.567C3.61919 38.664 3.41731 38.726 3.20984 38.7506L3.00183 38.7623H2.99792C2.68402 38.7632 2.37671 38.6782 2.10925 38.5172L1.99695 38.443L1.995 38.442L1.85828 38.3346C1.55451 38.0715 1.34853 37.7105 1.27917 37.3111C1.19996 36.8546 1.30587 36.3856 1.57214 36.0064L1.57117 36.0055C3.44896 33.3365 6.00823 31.22 8.98132 29.8746L9.70398 29.5475L9.09656 29.0357C7.29172 27.5173 5.99686 25.4806 5.38855 23.2018C4.81828 21.0652 4.87716 18.8126 5.55261 16.7135L5.69617 16.2955C6.4538 14.2182 7.793 12.4064 9.54968 11.0738L9.9071 10.8141C11.8397 9.46174 14.1411 8.73595 16.4999 8.73593ZM28.538 8.6998L28.6659 9.1832L28.6747 9.18124C29.5585 8.92964 30.4692 8.78698 31.3866 8.75644L31.7802 8.7496H31.7831C33.9956 8.74325 36.1596 9.37647 38.0165 10.568L38.3837 10.8141C40.1986 12.0799 41.6067 13.8412 42.4423 15.8834L42.6014 16.2955C43.3599 18.3741 43.5007 20.6244 43.0116 22.776L42.9052 23.2047C42.2939 25.4844 40.9953 27.5208 39.1854 29.0357L38.5751 29.5465L39.2997 29.8746C42.087 31.136 44.5102 33.0755 46.3495 35.5123L46.7098 36.0064L46.7118 36.0094C46.8452 36.196 46.94 36.4077 46.9911 36.6314C47.0294 36.7992 47.0426 36.9712 47.0302 37.1422L47.0096 37.3131C46.9704 37.539 46.886 37.7546 46.7626 37.9478C46.6699 38.093 46.5563 38.2233 46.4257 38.3346L46.2899 38.4391L46.2841 38.443C45.992 38.6517 45.642 38.7624 45.2831 38.7613C45.0729 38.76 44.8654 38.7219 44.6698 38.648L44.4774 38.5631C44.2906 38.4658 44.1238 38.3356 43.9833 38.1803L43.8514 38.0172C42.4881 36.0832 40.6809 34.5042 38.5809 33.4137C36.6119 32.3912 34.4393 31.8263 32.2255 31.7574L31.7821 31.7496H31.7811C31.375 31.7496 30.9831 31.6093 30.6718 31.3541L30.5438 31.2379C30.2156 30.9097 30.0311 30.4637 30.0311 29.9996C30.0312 29.5937 30.1726 29.2025 30.4276 28.8912L30.5438 28.7623C30.872 28.4342 31.3171 28.2496 31.7811 28.2496C33.7702 28.2496 35.6828 27.509 37.1503 26.1803L37.4384 25.9068C38.9386 24.4066 39.7811 22.3713 39.7811 20.2496C39.781 18.2606 39.0405 16.3479 37.7118 14.8805L37.4384 14.5934C35.9381 13.0931 33.9029 12.2496 31.7811 12.2496C31.1413 12.2485 30.5041 12.3263 29.8837 12.4801L29.619 12.5504L29.6132 12.5523C29.4465 12.602 29.2737 12.6259 29.1005 12.6246L28.9266 12.6148C28.7534 12.5963 28.5843 12.5523 28.4247 12.484L28.2694 12.4078C28.1169 12.3239 27.978 12.2178 27.8573 12.0934L27.7421 11.9635C27.5978 11.7817 27.4915 11.5726 27.4286 11.3492C27.3814 11.1816 27.3591 11.008 27.3632 10.8346L27.3759 10.6617C27.3971 10.4889 27.4438 10.3202 27.5145 10.1617L27.5936 10.0074C27.7087 9.80588 27.8627 9.62932 28.0468 9.48788C28.2307 9.34652 28.4407 9.24259 28.6649 9.1832L28.538 8.6998ZM18.0604 12.4039C16.5086 12.0953 14.9001 12.2535 13.4384 12.859C12.068 13.4266 10.8844 14.3633 10.0175 15.5621L9.84851 15.8053C8.96953 17.1207 8.49996 18.6675 8.49988 20.2496C8.49988 22.3712 9.34252 24.4066 10.8427 25.9068C12.3429 27.4071 14.3782 28.2496 16.4999 28.2496C17.9832 28.2496 19.4355 27.8379 20.6952 27.0621L20.9442 26.9019C22.2598 26.0229 23.286 24.7729 23.8915 23.3111C24.459 21.9408 24.633 20.4416 24.3983 18.981L24.3466 18.6891C24.0571 17.2342 23.369 15.8904 22.3622 14.8062L22.1571 14.5934C21.1083 13.5446 19.7897 12.8096 18.3505 12.4674L18.0604 12.4039Z" fill="#4CAF4F" stroke="#4CAF4F"/>
</svg>
